<?xml version="1.0" standalone="no"?>
<!DOCTYPE svg PUBLIC "-//W3C//DTD SVG 20010904//EN"
 "http://www.w3.org/TR/2001/REC-SVG-20010904/DTD/svg10.dtd">
<svg version="1.0" xmlns="http://www.w3.org/2000/svg"
 width="512.000000pt" height="512.000000pt" viewBox="0 0 512.000000 512.000000"
 preserveAspectRatio="xMidYMid meet">

<g transform="translate(0.000000,512.000000) scale(0.100000,-0.100000)"
fill="#000000" stroke="none">
<path d="M2949 5105 c-149 -30 -265 -94 -390 -215 -186 -179 -2013 -2098
-2045 -2147 -53 -81 -84 -187 -84 -285 0 -146 40 -248 145 -372 l52 -62 -54
-59 c-158 -177 -189 -411 -81 -619 27 -51 125 -155 607 -639 319 -320 600
-594 631 -615 95 -63 170 -85 290 -86 121 -1 187 16 281 73 68 41 2173 2050
2237 2134 57 75 87 131 119 222 l28 80 5 505 c3 278 3 771 0 1095 -5 578 -5
591 -27 648 -58 154 -179 273 -334 329 l-64 23 -625 2 c-489 1 -639 -1 -691
-12z m1324 -219 c66 -25 149 -104 178 -168 l24 -53 3 -597 c2 -508 0 -607 -13
-663 -20 -88 -55 -159 -107 -220 -24 -28 -313 -309 -643 -625 -330 -316 -798
-764 -1039 -995 -241 -231 -453 -430 -471 -442 -55 -37 -129 -56 -198 -51
-128 11 -109 -5 -744 631 -649 651 -618 612 -618 758 0 64 4 84 30 133 23 44
234 270 960 1028 1132 1182 1120 1169 1173 1202 59 37 136 66 201 76 31 4 317
7 636 6 537 -1 584 -3 628 -20z m205 -2141 c-4 -172 -7 -196 -29 -255 -35 -93
-89 -168 -182 -256 -45 -43 -522 -498 -1060 -1013 -631 -605 -996 -946 -1029
-965 -72 -42 -186 -48 -273 -16 -57 21 -85 48 -636 599 -457 457 -581 586
-600 626 -19 40 -24 66 -24 135 0 97 21 150 93 230 l40 45 464 -460 c379 -378
474 -466 523 -492 186 -97 391 -89 552 20 34 23 533 494 1110 1046 973 931
1048 1001 1051 975 2 -16 2 -114 0 -219z"/>
<path d="M3519 4466 c-112 -32 -221 -121 -272 -222 -118 -236 3 -518 258 -598
42 -14 79 -17 145 -14 77 4 98 9 163 41 91 45 156 112 200 205 40 86 49 209
21 297 -39 124 -138 232 -256 277 -67 25 -196 33 -259 14z m218 -232 c116 -67
135 -233 39 -329 -69 -69 -157 -83 -245 -39 -132 66 -157 229 -51 334 73 74
167 86 257 34z"/>
</g>
</svg>
