<?xml version="1.0" standalone="no"?>
<!DOCTYPE svg PUBLIC "-//W3C//DTD SVG 20010904//EN"
 "http://www.w3.org/TR/2001/REC-SVG-20010904/DTD/svg10.dtd">
<svg version="1.0" xmlns="http://www.w3.org/2000/svg"
 width="512.000000pt" height="512.000000pt" viewBox="0 0 512.000000 512.000000"
 preserveAspectRatio="xMidYMid meet">

<g transform="translate(0.000000,512.000000) scale(0.100000,-0.100000)"
fill="#000000" stroke="none">
<path d="M444 4772 c-115 -40 -199 -116 -251 -228 l-28 -59 -5 -1200 c-3 -660
-3 -1319 0 -1465 l5 -265 29 -60 c37 -75 124 -163 196 -198 32 -16 86 -31 130
-37 42 -5 372 -10 748 -10 l673 0 -3 -203 -3 -202 -31 -55 c-20 -36 -61 -81
-120 -132 l-89 -78 -208 0 c-229 0 -254 -5 -282 -60 -8 -16 -15 -42 -15 -58 0
-41 39 -95 80 -109 46 -16 2556 -18 2612 -3 39 11 74 48 85 88 10 40 -14 101
-50 122 -29 18 -52 20 -266 20 l-233 0 -64 50 c-89 71 -149 142 -168 197 -12
36 -16 89 -16 234 l0 188 723 3 c711 4 723 4 779 25 114 43 193 116 245 229
l28 59 3 1434 c3 1571 6 1485 -55 1588 -37 64 -134 148 -200 175 l-58 23
-2070 2 c-1955 2 -2073 1 -2121 -15z m4182 -247 c28 -16 49 -39 63 -68 21 -43
21 -47 21 -1150 l0 -1107 -2155 0 -2155 0 2 1123 3 1124 27 35 c56 74 -137 68
2122 68 l2029 0 43 -25z m82 -2743 c-3 -178 -3 -179 -31 -215 -15 -21 -42 -45
-60 -55 -30 -16 -149 -17 -2017 -20 -1092 -2 -2008 0 -2037 3 -60 7 -108 36
-140 84 -22 32 -23 44 -23 207 l0 174 2156 0 2155 0 -3 -178z m-1776 -754 c4
-245 11 -284 78 -391 17 -27 30 -50 30 -53 0 -2 -221 -4 -491 -4 l-490 0 19
28 c36 51 72 131 87 194 10 44 15 121 15 256 l0 192 374 0 375 0 3 -222z"/>
</g>
</svg>
