<svg width="15" height="9" viewBox="0 0 15 9" fill="none" xmlns="http://www.w3.org/2000/svg">
<path d="M6.63345 8.44546L0.365813 2.61882C0.121904 2.40424 2.5475e-08 2.13629 2.1637e-08 1.81444C1.77989e-08 1.49259 0.122039 1.22464 0.365813 1.01006L1.088 0.330866C1.3255 0.110372 1.61419 0.000125121 1.95437 0.000125117C2.28812 0.000125113 2.58025 0.110341 2.83049 0.330866L7.50003 4.67416L12.1792 0.330678C12.4167 0.110247 12.7054 -1.5151e-07 13.0456 -1.55567e-07C13.3793 -1.59547e-07 13.6715 0.110215 13.9217 0.330678L14.6438 1.00994C14.8813 1.2304 15 1.49863 15 1.81431C15 2.13012 14.8813 2.39829 14.6438 2.61869L8.37612 8.44546C8.12581 8.66602 7.83374 8.77636 7.5 8.77636C7.15982 8.77639 6.87096 8.66602 6.63345 8.44546Z" fill="white"/>
</svg>
